<svg width="360" height="180" viewBox="0 0 360 180" fill="none" xmlns="http://www.w3.org/2000/svg">
<rect width="360" height="180" fill="white"/>
<path d="M127.762 75.554C126.646 75.554 125.71 75.176 124.954 74.42C124.198 73.664 123.82 72.728 123.82 71.612C123.82 70.496 124.198 69.56 124.954 68.804C125.71 68.048 126.646 67.67 127.762 67.67C128.842 67.67 129.76 68.048 130.516 68.804C131.272 69.56 131.65 70.496 131.65 71.612C131.65 72.728 131.272 73.664 130.516 74.42C129.76 75.176 128.842 75.554 127.762 75.554ZM130.786 115.082C130.786 117.998 130.048 120.104 128.572 121.4C127.132 122.732 125.026 123.398 122.254 123.398H119.068V118.214H121.174C122.434 118.214 123.316 117.962 123.82 117.458C124.36 116.99 124.63 116.198 124.63 115.082V79.496H130.786V115.082ZM142 75.554C140.884 75.554 139.948 75.176 139.192 74.42C138.436 73.664 138.058 72.728 138.058 71.612C138.058 70.496 138.436 69.56 139.192 68.804C139.948 68.048 140.884 67.67 142 67.67C143.08 67.67 143.998 68.048 144.754 68.804C145.51 69.56 145.888 70.496 145.888 71.612C145.888 72.728 145.51 73.664 144.754 74.42C143.998 75.176 143.08 75.554 142 75.554ZM145.024 79.496V109.25H138.868V79.496H145.024ZM189.124 79.01C191.464 79.01 193.552 79.496 195.388 80.468C197.26 81.44 198.718 82.88 199.762 84.788C200.842 86.696 201.382 89 201.382 91.7V109.25H195.28V92.618C195.28 89.954 194.614 87.92 193.282 86.516C191.95 85.076 190.132 84.356 187.828 84.356C185.524 84.356 183.688 85.076 182.32 86.516C180.988 87.92 180.322 89.954 180.322 92.618V109.25H174.22V92.618C174.22 89.954 173.554 87.92 172.222 86.516C170.89 85.076 169.072 84.356 166.768 84.356C164.464 84.356 162.628 85.076 161.26 86.516C159.928 87.92 159.262 89.954 159.262 92.618V109.25H153.106V79.496H159.262V82.898C160.27 81.674 161.548 80.72 163.096 80.036C164.644 79.352 166.3 79.01 168.064 79.01C170.44 79.01 172.564 79.514 174.436 80.522C176.308 81.53 177.748 82.988 178.756 84.896C179.656 83.096 181.06 81.674 182.968 80.63C184.876 79.55 186.928 79.01 189.124 79.01ZM222.122 109.736C219.314 109.736 216.776 109.106 214.508 107.846C212.24 106.55 210.458 104.75 209.162 102.446C207.866 100.106 207.218 97.406 207.218 94.346C207.218 91.322 207.884 88.64 209.216 86.3C210.548 83.96 212.366 82.16 214.67 80.9C216.974 79.64 219.548 79.01 222.392 79.01C225.236 79.01 227.81 79.64 230.114 80.9C232.418 82.16 234.236 83.96 235.568 86.3C236.9 88.64 237.566 91.322 237.566 94.346C237.566 97.37 236.882 100.052 235.514 102.392C234.146 104.732 232.274 106.55 229.898 107.846C227.558 109.106 224.966 109.736 222.122 109.736ZM222.122 104.39C223.706 104.39 225.182 104.012 226.55 103.256C227.954 102.5 229.088 101.366 229.952 99.854C230.816 98.342 231.248 96.506 231.248 94.346C231.248 92.186 230.834 90.368 230.006 88.892C229.178 87.38 228.08 86.246 226.712 85.49C225.344 84.734 223.868 84.356 222.284 84.356C220.7 84.356 219.224 84.734 217.856 85.49C216.524 86.246 215.462 87.38 214.67 88.892C213.878 90.368 213.482 92.186 213.482 94.346C213.482 97.55 214.292 100.034 215.912 101.798C217.568 103.526 219.638 104.39 222.122 104.39ZM232.274 69.884V74.474H212.51V69.884H232.274Z" fill="black"/>
</svg>
