<svg width="41" height="29" viewBox="0 0 41 29" fill="none" xmlns="http://www.w3.org/2000/svg">
<path d="M34.7996 26.1001C33.9988 26.1001 33.3496 26.7493 33.3496 27.5501V28.2751C33.3496 28.6738 33.6759 29.0001 34.0746 29.0001H37.6996C38.0984 29.0001 38.4246 28.6738 38.4246 28.2751V27.5501C38.4246 26.7493 37.7754 26.1001 36.9746 26.1001H34.7996Z" fill="black"/>
<path d="M38.4254 11.5999H18.1254C17.7266 11.5999 17.4004 11.9261 17.4004 12.3249V13.7749V19.5749V23.9249C17.4004 24.3236 17.7266 24.6499 18.1254 24.6499H33.3504H38.4254H39.8754C40.2741 24.6499 40.6004 24.3236 40.6004 23.9249V13.7749C40.6004 12.5786 39.6216 11.5999 38.4254 11.5999Z" fill="black"/>
<path d="M13.7754 12.325C14.1758 12.325 14.5004 12.0004 14.5004 11.6C14.5004 9.9977 13.2026 8.69995 11.6004 8.69995H7.97539C7.17458 8.69995 6.52539 9.34914 6.52539 10.15V10.325C6.52539 11.4295 7.42082 12.325 8.52539 12.325H13.0504H13.7754Z" fill="black"/>
<path d="M7.075 13.775C5.97043 13.775 5.075 12.8796 5.075 11.775V8.7V2.5375C5.075 1.13825 3.93675 0 2.5375 0C1.13825 0 0 1.13825 0 2.5375V28.275C0 28.6738 0.32625 29 0.725 29H4.35C4.74875 29 5.075 28.6738 5.075 28.275V21.575C5.075 20.4704 5.97043 19.575 7.075 19.575H14.5C15.3008 19.575 15.95 18.9258 15.95 18.125V15.225C15.95 14.4242 15.3008 13.775 14.5 13.775H7.075Z" fill="black"/>
</svg>
