<svg width="38" height="40" viewBox="0 0 38 40" fill="none" xmlns="http://www.w3.org/2000/svg">
<path d="M37.3955 19.7236C37.2307 24.8305 35.0892 29.2784 31.6297 32.5731C30.3016 33.9012 28.7595 35.0151 27.0032 35.8286C26.2362 36.1838 25.6991 36.9263 25.6991 37.7715V38.0095C25.6991 38.5037 25.5344 38.8332 25.2049 39.1626C24.8754 39.4921 24.3812 39.6569 24.0517 39.6569H13.5085C13.1286 39.6569 12.7487 39.5595 12.4437 39.3648C12.2624 39.2492 12.1407 39.0649 12.0252 38.8836C11.8678 38.6367 11.6964 38.366 11.6964 38.0095V37.7357C11.6964 36.9082 11.182 36.1754 10.435 35.8193C8.73054 35.0066 7.08881 33.8961 5.76582 32.5731C2.30633 29.2784 0.164738 24.8305 0 19.7236C0 19.5588 0.164738 19.2294 0.494213 19.2294H15.9878C16.6971 19.2294 17.3533 18.8537 17.7125 18.242L27.5367 1.51016C27.6279 1.35484 27.6402 1.10849 27.8004 1.02622C28.0391 0.903662 28.4502 1.08801 28.443 1.35625C28.4421 1.39034 28.4355 1.42525 28.4238 1.45909C28.3871 1.56584 28.3066 1.65212 28.2507 1.75019L18.8778 18.1912C18.6139 18.654 18.9481 19.2294 19.4809 19.2294C19.6651 19.2294 19.8417 19.1562 19.9719 19.026L33.5418 5.45615C33.6938 5.30415 33.8629 5.15283 34.074 5.11214C34.2209 5.08383 34.3256 5.122 34.4302 5.22665C34.5949 5.39139 34.5949 5.72087 34.4302 5.88561L24.5007 15.8152C23.2407 17.0751 24.1331 19.2294 25.9149 19.2294H36.9013C37.2307 19.2294 37.3955 19.5588 37.3955 19.7236Z" fill="black"/>
</svg>
