<svg width="34" height="26" viewBox="0 0 34 26" fill="none" xmlns="http://www.w3.org/2000/svg">
<path fill-rule="evenodd" clip-rule="evenodd" d="M26.7427 11.1548V12.2261C29.8035 11.0019 33.4767 12.3792 33.4767 16.0522C33.4767 19.8783 29.0384 23.2456 25.3655 22.0208C24.4472 23.7044 22.9168 25.0817 21.2333 26H12.5097C8.22464 23.8574 7 20.3373 7 15.8993H26.7425C26.7425 17.7359 26.7425 18.9602 25.9773 20.7968C28.885 21.562 32.0988 18.8073 32.0988 16.0524C32.0988 13.1446 28.8849 12.5325 26.7426 13.6037V14.675H7.00011V11.1552H26.7426L26.7427 11.1548Z" fill="black"/>
<path d="M20.7741 8.40046C21.0802 8.85951 21.8454 8.40046 21.5393 7.78836C20.162 5.03364 23.3759 4.11535 21.5393 0.289064C21.3862 -0.323043 20.4679 0.135982 20.7741 0.748109C22.3045 4.11514 18.9375 5.03322 20.7741 8.40036V8.40046Z" fill="black"/>
<path d="M15.8768 8.40046C16.1829 8.85951 17.101 8.40046 16.7951 7.78836C15.2646 5.03364 18.6317 4.11535 16.7951 0.289064C16.4889 -0.323043 15.5708 0.135982 15.8768 0.748109C17.5603 4.11514 14.0402 5.03322 15.8768 8.40036V8.40046Z" fill="black"/>
<path d="M11.1323 8.40046C11.4384 8.85951 12.2036 8.40046 11.8975 7.78836C10.5202 5.03364 13.7341 4.11535 11.8975 0.289064C11.7444 -0.323043 10.8261 0.135982 10.9792 0.748109C12.6627 4.11514 9.2957 5.03322 11.1323 8.40036L11.1323 8.40046Z" fill="black"/>
</svg>
