<svg width="25" height="25" viewBox="0 0 25 25" fill="none" xmlns="http://www.w3.org/2000/svg">
<path d="M10.1944 20.4058C12.3574 20.4058 14.3527 19.7183 16.0126 18.5781L21.965 24.5305C22.2835 24.8491 22.7027 25 23.1387 25C24.0776 25 24.7651 24.279 24.7651 23.3568C24.7651 22.9209 24.6142 22.4849 24.2956 22.1831L18.3936 16.2642C19.6511 14.554 20.3889 12.4581 20.3889 10.1945C20.3889 4.57747 15.8114 0 10.1944 0C4.59421 0 0 4.56071 0 10.1945C0 15.8116 4.57742 20.4058 10.1944 20.4058ZM10.1944 17.9075C5.98588 17.9075 2.49832 14.4198 2.49832 10.1945C2.49832 5.98593 5.98588 2.49832 10.1944 2.49832C14.4197 2.49832 17.8906 5.98593 17.8906 10.1945C17.8906 14.4198 14.4197 17.9075 10.1944 17.9075Z" fill="black"/>
</svg>
