<svg width="72" height="92" viewBox="0 0 72 92" fill="none" xmlns="http://www.w3.org/2000/svg">
<path d="M26.7567 27.946C25.8558 27.946 25.081 27.6307 24.4324 27C23.7837 26.3694 23.4594 25.6217 23.4594 24.7568C23.4594 23.8199 23.7837 23.0361 24.4324 22.4054C25.081 21.7748 25.8558 21.4595 26.7567 21.4595H58.4324C59.2973 21.4595 60.054 21.7748 60.7027 22.4054C61.3513 23.0361 61.6756 23.8199 61.6756 24.7568C61.6756 25.6217 61.3513 26.3694 60.7027 27C60.054 27.6307 59.2973 27.946 58.4324 27.946H26.7567ZM26.7567 40.2703C25.8558 40.2703 25.081 39.955 24.4324 39.3244C23.7837 38.6937 23.4594 37.9099 23.4594 36.9729C23.4594 36.1081 23.7837 35.3514 24.4324 34.7027C25.081 34.0541 25.8558 33.7298 26.7567 33.7298H51.4054C52.3063 33.7298 53.0721 34.0541 53.7027 34.7027C54.3334 35.3514 54.6487 36.1081 54.6487 36.9729C54.6487 37.9099 54.3334 38.6937 53.7027 39.3244C53.0721 39.955 52.3063 40.2703 51.4054 40.2703H26.7567ZM13.5676 91.0811H68.1081C69.1532 91.0811 70.0631 90.7027 70.8378 89.9459C71.6126 89.1892 72 88.2702 72 87.1892C72 86.3243 71.7297 85.5495 71.1892 84.8648C70.6486 84.1802 70 83.7117 69.2433 83.4594C67.5495 82.8829 66.3333 81.8378 65.5946 80.3243C64.8559 78.8108 64.6937 77.1171 65.1081 75.2432C65.5225 73.3694 66.5765 71.6036 68.2702 69.9459C69.0631 69.1892 69.8829 68.2342 70.7297 67.0811C71.5766 65.9279 72 64.2702 72 62.1081V13.7838C72 9.20722 70.8649 5.76576 68.5946 3.45946C66.3243 1.15315 62.9189 0 58.3784 0H13.5676C9.02701 0 5.63061 1.14415 3.3784 3.43245C1.12613 5.72075 0 9.1712 0 13.7838V77.2973C0 81.9099 1.12613 85.3603 3.3784 87.6486C5.63061 89.9369 9.02701 91.0811 13.5676 91.0811ZM13.946 83.2973C11.9279 83.2973 10.3964 82.7657 9.35136 81.7027C8.30633 80.6396 7.78381 79.1531 7.78381 77.2432C7.78381 75.4414 8.3874 73.991 9.59458 72.8918C10.8018 71.7928 12.4144 71.2432 14.4324 71.2432H57.2972C57.4775 71.2432 57.6306 71.2432 57.7568 71.2432C57.8829 71.2432 58.018 71.2432 58.1622 71.2432C57.3333 73.2973 56.9369 75.3603 56.973 77.4324C57.009 79.5045 57.4595 81.4594 58.3243 83.2973H13.946ZM12.8648 64.3784C12.1081 64.3784 11.4594 64.1171 10.9189 63.5946C10.3784 63.0721 10.1081 62.4324 10.1081 61.6757V9.62162C10.1081 8.86485 10.3784 8.22521 10.9189 7.70269C11.4594 7.18017 12.1081 6.91892 12.8648 6.91892C13.5856 6.91892 14.2162 7.18017 14.7568 7.70269C15.2973 8.22521 15.5675 8.86485 15.5675 9.62162V61.6757C15.5675 62.4324 15.2973 63.0721 14.7568 63.5946C14.2162 64.1171 13.5856 64.3784 12.8648 64.3784Z" fill="black"/>
</svg>
