<svg id="Capa_1" enable-background="new 0 0 511 511" height="512" viewBox="0 0 511 511" width="512" xmlns="http://www.w3.org/2000/svg"><g><circle cx="255.5" cy="225" r="136"/><path d="m415.306 66.193c-42.685-42.685-99.439-66.193-159.806-66.193s-117.121 23.508-159.806 66.193c-42.686 42.687-66.194 99.44-66.194 159.807 0 106.499 74.454 198.443 177.887 220.849l48.113 64.151 48.114-64.152c103.432-22.406 177.886-114.349 177.886-220.848 0-60.367-23.508-117.12-66.194-159.807zm-159.806-7.193c91.533 0 166 74.468 166 166s-74.467 166-166 166-166-74.468-166-166 74.467-166 166-166z"/></g></svg>