<svg width="43" height="37" viewBox="0 0 43 37" fill="none" xmlns="http://www.w3.org/2000/svg">
<path d="M12.1429 16.6963V19.732H0V36.4284H3.03571V32.6338C3.03888 32.1327 3.24018 31.6531 3.59565 31.2999C3.95112 30.9467 4.4319 30.7484 4.93303 30.7484C5.43417 30.7484 5.91495 30.9467 6.27042 31.2999C6.62589 31.6531 6.82719 32.1327 6.83035 32.6338V36.4284H8.34821V32.6338C8.34888 32.131 8.54907 31.6491 8.90481 31.2938C9.26056 30.9385 9.74277 30.739 10.2455 30.739C10.7483 30.739 11.2305 30.9385 11.5863 31.2938C11.942 31.6491 12.1422 32.131 12.1429 32.6338V36.4284H15.1786V28.1899C15.1903 26.5873 15.8351 25.0544 16.9724 23.9253C18.1098 22.7962 19.6474 22.1626 21.25 22.1626C22.8526 22.1626 24.3902 22.7962 25.5276 23.9253C26.6649 25.0544 27.3097 26.5873 27.3214 28.1899V36.4284H30.3571V32.6338C30.3578 32.131 30.558 31.6491 30.9137 31.2938C31.2695 30.9385 31.7517 30.739 32.2545 30.739C32.7572 30.739 33.2394 30.9385 33.5952 31.2938C33.9509 31.6491 34.1511 32.131 34.1518 32.6338V36.4284H35.6696V32.6338C35.6728 32.1327 35.8742 31.6532 36.2296 31.3C36.5851 30.9468 37.0659 30.7486 37.567 30.7486C38.0681 30.7486 38.5488 30.9468 38.9043 31.3C39.2597 31.6532 39.4611 32.1327 39.4643 32.6338V36.4284H42.5V19.732H30.3571V16.6963H12.1429ZM37.6233 23.1472C38.1166 23.1618 38.5849 23.3682 38.9286 23.7224C39.2723 24.0767 39.4645 24.5509 39.4643 25.0445V28.8391H35.6696V25.0445C35.6695 24.7905 35.7204 24.5391 35.8193 24.3052C35.9181 24.0712 36.0629 23.8595 36.2451 23.6826C36.4273 23.5057 36.6432 23.3671 36.8799 23.2751C37.1166 23.1832 37.3694 23.1396 37.6233 23.1472ZM4.87374 23.1501C5.1276 23.1422 5.38046 23.1853 5.61734 23.2769C5.85422 23.3685 6.0703 23.5068 6.25277 23.6834C6.43524 23.8601 6.58038 24.0716 6.6796 24.3054C6.77881 24.5392 6.83008 24.7905 6.83035 25.0445V28.8391H3.03571V25.0445C3.03625 24.5519 3.22833 24.0789 3.57134 23.7253C3.91435 23.3718 4.3814 23.1655 4.87374 23.1501ZM32.1744 23.1709C32.4282 23.1602 32.6816 23.2005 32.9196 23.2896C33.1575 23.3786 33.3751 23.5145 33.5596 23.6893C33.744 23.864 33.8914 24.074 33.9932 24.3068C34.0949 24.5396 34.1488 24.7905 34.1518 25.0445V28.8391H30.3571V25.0445C30.3631 24.5644 30.5509 24.1043 30.8826 23.7572C31.2144 23.41 31.6654 23.2016 32.1448 23.1739C32.1546 23.1728 32.1645 23.1718 32.1744 23.1709ZM10.1655 23.1739C10.4191 23.1631 10.6722 23.2034 10.91 23.2923C11.1477 23.3811 11.3652 23.5168 11.5496 23.6912C11.734 23.8656 11.8815 24.0753 11.9834 24.3077C12.0853 24.5402 12.1395 24.7907 12.1429 25.0445V28.8391H8.34821V25.0445C8.3546 24.5595 8.54651 24.0954 8.88449 23.7474C9.22247 23.3995 9.68087 23.1943 10.1655 23.1739Z" fill="black"/>
<path d="M5.0602 18.9736H3.03613V15.6851H9.10752V18.9736H7.08386V17.2476C7.08062 16.9814 6.97259 16.7272 6.78319 16.5401C6.59379 16.353 6.33827 16.2481 6.07203 16.2481C5.80578 16.2481 5.55026 16.353 5.36086 16.5401C5.17146 16.7272 5.06343 16.9814 5.0602 17.2476V18.9736Z" fill="black"/>
<path d="M9.49189 14.9257H2.64943C2.37763 14.1872 2.35289 13.3803 2.57891 12.6266C2.80494 11.8728 3.26952 11.2129 3.90283 10.7458C4.67052 10.1796 5.39513 9.55707 6.07066 8.88354C6.7462 9.55707 7.4708 10.1796 8.2385 10.7458C8.8718 11.2129 9.33638 11.8728 9.56241 12.6266C9.78843 13.3803 9.76369 14.1872 9.49189 14.9257Z" fill="black"/>
<path d="M12.6866 15.9376C11.8632 13.9868 11.7202 11.8155 12.2808 9.77361C12.8414 7.73171 14.0729 5.93798 15.7769 4.68109C17.7116 3.25431 19.541 1.68985 21.2507 0C22.9603 1.68984 24.7896 3.25429 26.7241 4.68109C28.4282 5.93798 29.6597 7.73171 30.2202 9.77361C30.7808 11.8155 30.6379 13.9868 29.8144 15.9376H12.6866Z" fill="black"/>
<path d="M37.4399 18.9736H39.464V15.6851H33.3926V18.9736H35.4162V17.2476C35.4194 16.9813 35.5274 16.7271 35.7168 16.5399C35.9062 16.3528 36.1618 16.2477 36.4281 16.2477C36.6944 16.2477 36.9499 16.3528 37.1393 16.5399C37.3287 16.7271 37.4367 16.9813 37.4399 17.2476V18.9736Z" fill="black"/>
<path d="M33.0078 14.9257H39.8503C40.1221 14.1872 40.1468 13.3803 39.9208 12.6266C39.6948 11.8728 39.2302 11.2129 38.5969 10.7458C37.8292 10.1796 37.1046 9.55707 36.4291 8.88354C35.7535 9.55707 35.0289 10.1796 34.2612 10.7458C33.6279 11.2129 33.1633 11.8728 32.9373 12.6266C32.7113 13.3803 32.736 14.1872 33.0078 14.9257Z" fill="black"/>
</svg>
