<svg width="95" height="96" viewBox="0 0 95 96" fill="none" xmlns="http://www.w3.org/2000/svg">
<path d="M90.6012 31.2186C93.5337 31.2186 95 29.7321 95 26.7589V15.3955C95 10.2637 93.7069 6.41483 91.1206 3.8489C88.5343 1.28296 84.6345 0 79.4212 0H68.0579C65.0847 0 63.598 1.48662 63.598 4.45986C63.598 7.39231 65.0847 8.85853 68.0579 8.85853H79.299C81.4983 8.85853 83.1988 9.44909 84.4003 10.6302C85.6018 11.8114 86.2025 13.5424 86.2025 15.8231V26.7589C86.2025 29.7321 87.6687 31.2186 90.6012 31.2186ZM68.0579 95.061H79.4212C84.6345 95.061 88.5343 93.778 91.1206 91.2121C93.7069 88.6462 95 84.7973 95 79.6655V68.3633C95 65.3493 93.5337 63.8423 90.6012 63.8423C87.6687 63.8423 86.2025 65.3493 86.2025 68.3633V79.2379C86.2025 81.5594 85.6018 83.3005 84.4003 84.4613C83.1988 85.6221 81.4983 86.2025 79.299 86.2025H68.0579C65.0847 86.2025 63.598 87.6891 63.598 90.6623C63.598 93.5947 65.0847 95.061 68.0579 95.061ZM4.39866 31.2186C7.33119 31.2186 8.79746 29.7321 8.79746 26.7589V15.8231C8.79746 13.5424 9.3982 11.8114 10.5997 10.6302C11.8011 9.44909 13.5016 8.85853 15.701 8.85853H26.9421C29.9153 8.85853 31.4019 7.39231 31.4019 4.45986C31.4019 1.48662 29.9153 0 26.9421 0H15.5788C10.4062 0 6.51658 1.28296 3.90994 3.8489C1.30331 6.41483 0 10.2637 0 15.3955V26.7589C0 29.7321 1.46622 31.2186 4.39866 31.2186ZM15.5788 95.061H26.9421C29.9153 95.061 31.4019 93.5947 31.4019 90.6623C31.4019 87.6891 29.9153 86.2025 26.9421 86.2025H15.701C13.5016 86.2025 11.8011 85.6221 10.5997 84.4613C9.3982 83.3005 8.79746 81.5594 8.79746 79.2379V68.3633C8.79746 65.3493 7.33119 63.8423 4.39866 63.8423C1.46622 63.8423 0 65.3493 0 68.3633V79.6655C0 84.7973 1.30331 88.6462 3.90994 91.2121C6.51658 93.778 10.4062 95.061 15.5788 95.061Z" fill="black"/>
<path d="M21.383 53.1504L41.8492 53.2115L41.9103 73.0668C41.9103 74.981 42.3176 76.4371 43.1322 77.435C43.9467 78.4328 45.1482 78.9318 46.7366 78.9318C48.9767 78.9318 50.7484 77.4859 52.0518 74.5941L72.9456 29.4463C73.5973 28.0615 73.9231 26.86 73.9231 25.8418C73.9231 24.4978 73.4751 23.3777 72.579 22.4817C71.683 21.5857 70.5629 21.1377 69.2189 21.1377C68.2007 21.1377 66.9992 21.4635 65.6144 22.1151L20.0389 43.1312C18.7763 43.7014 17.809 44.4243 17.137 45.3C16.4649 46.1756 16.1289 47.1837 16.1289 48.3241C16.1289 49.9125 16.577 51.114 17.4731 51.9285C18.3691 52.7431 19.6724 53.1504 21.383 53.1504ZM29.6306 46.1858L65.0646 29.9961L48.8749 65.6134L48.9971 49.3015C48.9971 48.3648 48.6916 47.591 48.0807 46.9801C47.4697 46.3691 46.6959 46.0636 45.7592 46.0636L29.6306 46.1858Z" fill="black"/>
</svg>
