<svg width="81" height="90" viewBox="0 0 81 90" fill="none" xmlns="http://www.w3.org/2000/svg">
<path d="M0 68.3621C0 70.0975 0.641726 71.4984 1.92518 72.5649C3.20865 73.6315 5.0073 74.1648 7.32113 74.1648H23.9156C24.0241 76.9124 24.8014 79.4974 26.2475 81.9197C27.6936 84.342 29.6369 86.2943 32.0772 87.7766C34.5176 89.2589 37.3105 90 40.4559 90C43.6012 90 46.394 89.2589 48.8344 87.7766C51.2747 86.2943 53.209 84.342 54.637 81.9197C56.0651 79.4974 56.8514 76.9124 56.996 74.1648H73.5905C75.8682 74.1648 77.6578 73.6315 78.9593 72.5649C80.2608 71.4984 80.9116 70.0975 80.9116 68.3621C80.9116 66.2652 80.0168 64.2316 78.2271 62.2612C76.4375 60.2909 74.6028 58.3657 72.7228 56.4857C71.9275 55.6541 71.2767 54.5966 70.7706 53.3132C70.2644 52.0297 69.8848 50.674 69.6317 49.2459C69.3786 47.8179 69.234 46.4711 69.1979 45.2057C69.1979 43.6874 69.1617 42.2141 69.0894 40.786C69.0171 39.3579 68.9267 37.9751 68.8183 36.6374C67.6614 36.999 66.3779 37.2611 64.9679 37.4237C63.5579 37.5864 62.2745 37.6135 61.1176 37.505C61.2261 38.7343 61.3164 40.0268 61.3887 41.3826C61.461 42.7383 61.4972 44.1935 61.4972 45.7481C61.5333 48.3873 61.7502 50.6469 62.1479 52.5268C62.5456 54.4069 63.0789 56.0066 63.7477 57.3262C64.4166 58.6459 65.1848 59.7938 66.0525 60.7699C67.1009 61.9629 68.1403 63.0656 69.1707 64.0779C70.2011 65.0902 70.9513 65.8314 71.4213 66.3014V66.8437H9.49031V66.3014C9.96033 65.8314 10.7105 65.0902 11.7409 64.0779C12.7713 63.0656 13.8107 61.9629 14.8591 60.7699C15.6906 59.7938 16.4499 58.6459 17.1368 57.3262C17.8237 56.0066 18.366 54.4069 18.7637 52.5268C19.1614 50.6469 19.3783 48.3873 19.4144 45.7481C19.4144 38.9874 20.011 33.6909 21.2041 29.8586C22.3971 26.0264 23.9969 23.2064 26.0035 21.3987C28.01 19.591 30.2063 18.3618 32.5924 17.7111C33.0624 17.6026 33.4239 17.4128 33.677 17.1416C33.93 16.8705 34.0566 16.4818 34.0566 15.9757C34.0928 13.7341 34.6894 11.9264 35.8463 10.5527C37.0032 9.17881 38.5397 8.49188 40.4559 8.49188C41.1789 8.49188 41.7935 8.56418 42.2996 8.70879C42.7334 7.58801 43.2486 6.51243 43.8452 5.48206C44.4417 4.45168 45.1196 3.48457 45.8789 2.58074C44.1796 1.78537 42.3719 1.3877 40.4559 1.3877C37.202 1.3877 34.4633 2.36383 32.2399 4.31611C30.0165 6.26846 28.5071 8.60039 27.7116 11.3119C21.8909 13.5534 17.7694 17.5031 15.3471 23.1612C12.9248 28.8192 11.6956 36.1674 11.6595 45.2057C11.6595 46.4711 11.533 47.8179 11.2799 49.2459C11.0268 50.674 10.6472 52.0297 10.141 53.3132C9.63488 54.5966 8.98412 55.6541 8.18876 56.4857C6.30882 58.3657 4.47405 60.2909 2.68444 62.2612C0.894814 64.2316 0 66.2652 0 68.3621ZM31.4536 74.1648H49.458C49.2773 76.9486 48.3644 79.154 46.7194 80.7809C45.0744 82.4078 42.9865 83.2212 40.4559 83.2212C37.9251 83.2212 35.8372 82.4078 34.1922 80.7809C32.5472 79.154 31.6343 76.9486 31.4536 74.1648Z" fill="black"/>
<path d="M62.4198 31.2683C65.2036 31.2683 67.7434 30.5905 70.0392 29.2347C72.3349 27.879 74.1697 26.0532 75.5435 23.7574C76.9173 21.4617 77.6043 18.9219 77.6043 16.1381C77.6043 13.3543 76.9173 10.8145 75.5435 8.51871C74.1697 6.22295 72.3349 4.39721 70.0392 3.04149C67.7434 1.6857 65.2036 1.00781 62.4198 1.00781C59.6721 1.00781 57.1504 1.6857 54.8547 3.04149C52.5589 4.39721 50.7241 6.22295 49.3503 8.51871C47.9765 10.8145 47.2896 13.3543 47.2896 16.1381C47.2896 18.9219 47.9765 21.4617 49.3503 23.7574C50.7241 26.0532 52.5589 27.879 54.8547 29.2347C57.1504 30.5905 59.6721 31.2683 62.4198 31.2683Z" fill="black"/>
<circle cx="61.9824" cy="15.6216" r="15.6216" fill="#F80404"/>
</svg>
