<svg width="106" height="50" viewBox="0 0 106 50" fill="none" xmlns="http://www.w3.org/2000/svg">
<path d="M7.98556 7.048C6.99356 7.048 6.16156 6.712 5.48956 6.04C4.81756 5.368 4.48156 4.536 4.48156 3.544C4.48156 2.552 4.81756 1.72 5.48956 1.048C6.16156 0.375998 6.99356 0.0399981 7.98556 0.0399981C8.94556 0.0399981 9.76156 0.375998 10.4336 1.048C11.1056 1.72 11.4416 2.552 11.4416 3.544C11.4416 4.536 11.1056 5.368 10.4336 6.04C9.76156 6.712 8.94556 7.048 7.98556 7.048ZM10.6736 42.184C10.6736 44.776 10.0176 46.648 8.70556 47.8C7.42556 48.984 5.55356 49.576 3.08956 49.576H0.257562V44.968H2.12956C3.24956 44.968 4.03356 44.744 4.48156 44.296C4.96156 43.88 5.20156 43.176 5.20156 42.184V10.552H10.6736V42.184ZM20.6418 7.048C19.6498 7.048 18.8178 6.712 18.1458 6.04C17.4738 5.368 17.1378 4.536 17.1378 3.544C17.1378 2.552 17.4738 1.72 18.1458 1.048C18.8178 0.375998 19.6498 0.0399981 20.6418 0.0399981C21.6018 0.0399981 22.4178 0.375998 23.0898 1.048C23.7618 1.72 24.0978 2.552 24.0978 3.544C24.0978 4.536 23.7618 5.368 23.0898 6.04C22.4178 6.712 21.6018 7.048 20.6418 7.048ZM23.3298 10.552V37H17.8578V10.552H23.3298ZM62.5301 10.12C64.6101 10.12 66.4661 10.552 68.0981 11.416C69.7621 12.28 71.0581 13.56 71.9861 15.256C72.9461 16.952 73.4261 19 73.4261 21.4V37H68.0021V22.216C68.0021 19.848 67.4101 18.04 66.2261 16.792C65.0421 15.512 63.4261 14.872 61.3781 14.872C59.3301 14.872 57.6981 15.512 56.4821 16.792C55.2981 18.04 54.7061 19.848 54.7061 22.216V37H49.2821V22.216C49.2821 19.848 48.6901 18.04 47.5061 16.792C46.3221 15.512 44.7061 14.872 42.6581 14.872C40.6101 14.872 38.9781 15.512 37.7621 16.792C36.5781 18.04 35.9861 19.848 35.9861 22.216V37H30.5141V10.552H35.9861V13.576C36.8821 12.488 38.0181 11.64 39.3941 11.032C40.7701 10.424 42.2421 10.12 43.8101 10.12C45.9221 10.12 47.8101 10.568 49.4741 11.464C51.1381 12.36 52.4181 13.656 53.3141 15.352C54.1141 13.752 55.3621 12.488 57.0581 11.56C58.7541 10.6 60.5781 10.12 62.5301 10.12ZM91.8611 37.432C89.3651 37.432 87.1091 36.872 85.0931 35.752C83.0771 34.6 81.4931 33 80.3411 30.952C79.1891 28.872 78.6131 26.472 78.6131 23.752C78.6131 21.064 79.2051 18.68 80.3891 16.6C81.5731 14.52 83.1891 12.92 85.2371 11.8C87.2851 10.68 89.5731 10.12 92.1011 10.12C94.6291 10.12 96.9171 10.68 98.9651 11.8C101.013 12.92 102.629 14.52 103.813 16.6C104.997 18.68 105.589 21.064 105.589 23.752C105.589 26.44 104.981 28.824 103.765 30.904C102.549 32.984 100.885 34.6 98.7731 35.752C96.6931 36.872 94.3891 37.432 91.8611 37.432ZM91.8611 32.68C93.2691 32.68 94.5811 32.344 95.7971 31.672C97.0451 31 98.0531 29.992 98.8211 28.648C99.5891 27.304 99.9731 25.672 99.9731 23.752C99.9731 21.832 99.6051 20.216 98.8691 18.904C98.1331 17.56 97.1571 16.552 95.9411 15.88C94.7251 15.208 93.4131 14.872 92.0051 14.872C90.5971 14.872 89.2851 15.208 88.0691 15.88C86.8851 16.552 85.9411 17.56 85.2371 18.904C84.5331 20.216 84.1811 21.832 84.1811 23.752C84.1811 26.6 84.9011 28.808 86.3411 30.376C87.8131 31.912 89.6531 32.68 91.8611 32.68Z" fill="black"/>
</svg>
