<svg width="155" height="72" viewBox="0 0 155 72" fill="none" xmlns="http://www.w3.org/2000/svg">
<path d="M27.375 41.75C27.375 46.25 24.15 49.625 19.875 49.625C15.6 49.625 12.375 46.25 12.375 41.75H4.875C4.875 50.375 11.25 56.75 19.875 56.75C28.5 56.75 34.875 50.375 34.875 41.75V18.5H27.375V41.75ZM53.6279 56V18.5H46.1279V56H53.6279ZM71.6279 18.5H64.8779V56H72.3779V29.75H72.5279C72.5279 29.75 73.2779 32.15 74.6279 33.95L79.8779 41H87.3779L92.6279 33.95C93.9779 32.15 94.7279 29.75 94.7279 29.75H94.8779V56H102.378V18.5H95.6279L83.9279 34.25H83.4029L71.6279 18.5ZM131.282 17.75C120.032 17.75 111.782 26 111.782 37.25C111.782 48.5 120.032 56.75 131.282 56.75C142.532 56.75 150.782 48.5 150.782 37.25C150.782 26 142.532 17.75 131.282 17.75ZM131.282 49.625C124.532 49.625 119.657 44.375 119.657 37.25C119.657 30.125 124.532 24.875 131.282 24.875C138.032 24.875 142.907 30.125 142.907 37.25C142.907 44.375 138.032 49.625 131.282 49.625Z" fill="black"/>
</svg>
