<svg width="25" height="25" viewBox="0 0 25 25" fill="none" xmlns="http://www.w3.org/2000/svg">
<path d="M1.44539 24.5198C1.7732 24.5198 2.08612 24.4078 2.50335 24.1677L8.40404 20.7746L14.9157 24.6159C15.3627 24.872 15.8395 25 16.3015 25C16.7336 25 17.1657 24.888 17.5084 24.6799L23.6624 20.9667C24.4075 20.5186 24.7651 19.8303 24.7651 18.934V2.04866C24.7651 1.04032 24.2436 0.480139 23.3048 0.480139C22.9919 0.480139 22.6641 0.592177 22.2469 0.832247L16.0481 4.56146L9.6408 0.336078C9.29809 0.112037 8.88087 0 8.46364 0C8.03152 0 7.59941 0.112037 7.24178 0.336078L1.10266 4.04929C0.342728 4.49744 0 5.18566 0 6.06592V22.9513C0 23.9597 0.521526 24.5198 1.44539 24.5198ZM7.53981 18.4859L2.45864 21.4629C2.39904 21.4949 2.33941 21.5269 2.29473 21.5269C2.19043 21.5269 2.14572 21.4629 2.14572 21.3508V6.65813C2.14572 6.35401 2.26492 6.12994 2.53313 5.95389L7.12258 3.12097C7.2716 3.02496 7.40569 2.94492 7.53981 2.84891V18.4859ZM9.7004 18.726V3.16899C9.81963 3.24904 9.95372 3.32905 10.0729 3.40906L15.0647 6.67413V21.895C14.8859 21.783 14.7071 21.6869 14.5282 21.5749L9.7004 18.726ZM17.2104 22.1671V6.53007L22.3065 3.53713C22.3661 3.5051 22.4257 3.47311 22.4704 3.47311C22.5598 3.47311 22.6045 3.53713 22.6045 3.64916V18.3579C22.6045 18.662 22.5002 18.886 22.232 19.0621L17.7766 21.815C17.5978 21.943 17.4041 22.0551 17.2104 22.1671Z" fill="black"/>
</svg>
