<svg width="20" height="40" viewBox="0 0 20 40" fill="none" xmlns="http://www.w3.org/2000/svg">
<path d="M14.1013 24.31C14.1455 24.2942 14.1894 24.2762 14.2336 24.26C14.2879 24.2407 14.3262 24.2271 14.3319 24.2251C14.3324 24.225 14.3328 24.2247 14.3331 24.2243C14.3337 24.223 14.3343 24.2216 14.3356 24.2211C17.8414 22.8838 20 19.8514 20 15.8565C20 11.8336 18.0827 0.974205 18.0012 0.513816C17.9488 0.216665 17.6907 0 17.389 0H2.61158C2.30966 0 2.05124 0.216557 1.99842 0.513816C1.91686 0.974205 0 11.8336 0 15.8565C0 19.8518 2.15899 22.8843 5.66491 24.2215C5.66572 24.2218 5.66636 24.2223 5.66654 24.2231C5.66678 24.2242 5.66755 24.2251 5.66856 24.2254C5.67664 24.2282 5.71503 24.2415 5.7668 24.26C5.81063 24.2762 5.85364 24.2942 5.89787 24.3096C6.7017 24.6206 9.39114 25.8277 9.39114 28.0695V36.7478C9.39114 37.8524 8.49571 38.7478 7.39114 38.7478H4.55599C4.22001 38.7478 3.94733 39.0279 3.94733 39.3739C3.94733 39.7199 4.22001 40 4.55599 40H15.4444C15.7804 40 16.0531 39.7199 16.0531 39.3739C16.0531 39.0279 15.7804 38.7478 15.4444 38.7478H12.6089C11.5043 38.7478 10.6089 37.8524 10.6089 36.7478V28.07C10.6089 25.8285 13.2967 24.6218 14.1013 24.31ZM3.07004 12.045C2.17268 11.8065 1.63429 10.9196 1.75605 9.99913C2.09549 7.43293 2.52508 4.73132 2.82634 2.91263C2.98544 1.9521 3.818 1.25219 4.79162 1.25219H15.2095C16.183 1.25219 17.0154 1.95168 17.1745 2.91208C17.4074 4.31852 17.717 6.25313 18.0025 8.24503C18.1837 9.50963 17.1276 10.6116 15.8526 10.6927C14.8718 10.7551 13.6929 10.9065 12.4162 11.2288C11.6371 11.3958 10.8182 11.6391 9.96977 11.9939C7.6796 12.9507 4.93193 12.5399 3.07004 12.045Z" fill="black"/>
</svg>
