<svg width="25" height="25" viewBox="0 0 25 25" fill="none" xmlns="http://www.w3.org/2000/svg">
<path d="M23.175 1.63119C21.7371 0.188906 19.7072 0 17.5419 0H7.22314C5.05789 0 3.02799 0.188906 1.59012 1.63119C0.16916 3.09067 0 5.11676 0 7.31456V17.6683C0 19.8832 0.16916 21.9265 1.59012 23.3688C3.02799 24.8283 5.04098 25 7.22314 25H17.5419C19.7072 25 21.7371 24.8283 23.175 23.3688C24.5959 21.9093 24.7651 19.8832 24.7651 17.6683V7.33176C24.7651 5.11676 24.5959 3.09067 23.175 1.63119ZM22.3292 6.95398V18.046C22.3292 19.2995 22.1938 20.7589 21.3988 21.5659C20.6038 22.3729 19.149 22.5275 17.9141 22.5275H6.85099C5.61614 22.5275 4.16133 22.3729 3.36629 21.5659C2.57124 20.7589 2.43592 19.2995 2.43592 18.046V6.97118C2.43592 5.70057 2.57124 4.24109 3.36629 3.43409C4.16133 2.62709 5.61614 2.47254 6.8679 2.47254H17.9141C19.149 2.47254 20.6038 2.62709 21.3988 3.43409C22.1938 4.24109 22.3292 5.70057 22.3292 6.95398ZM12.3656 18.5096C13.1776 18.5096 13.6512 17.943 13.6512 17.0501V13.7706H17.1698C18.0156 13.7706 18.6077 13.3242 18.6077 12.5C18.6077 11.6586 18.0494 11.1951 17.1698 11.1951H13.6512V7.60646C13.6512 6.71359 13.1776 6.14699 12.3656 6.14699C11.5536 6.14699 11.1138 6.74795 11.1138 7.60646V11.1951H7.61223C6.71567 11.1951 6.15745 11.6586 6.15745 12.5C6.15745 13.3242 6.74949 13.7706 7.61223 13.7706H11.1138V17.0501C11.1138 17.9258 11.5536 18.5096 12.3656 18.5096Z" fill="black"/>
</svg>
