<svg width="260" height="319" viewBox="0 0 260 319" fill="none" xmlns="http://www.w3.org/2000/svg">
<path d="M206.176 53.7636L206.222 53.8127L206.271 53.8592C226.082 72.6415 238.611 99.7886 238.611 130.097C238.611 152.339 228.257 175.086 212.998 197.661C198.135 219.65 178.838 241.165 160.523 261.585C160.056 262.106 159.588 262.627 159.122 263.148L159.084 263.19L159.047 263.234C155.281 267.841 151.357 272.274 147.425 276.716C146.377 277.9 145.329 279.084 144.283 280.272C139.619 285.57 135.022 290.926 130.87 296.531H130.032H129.132C120.686 285.051 111.237 274.551 100.874 263.142C100.409 262.624 99.9429 262.104 99.4765 261.585C81.1619 241.165 61.8651 219.65 47.0018 197.661C31.7425 175.086 21.3889 152.339 21.3889 130.097C21.3889 99.7886 33.9182 72.6415 53.7286 53.8592L53.7776 53.8127L53.8241 53.7636C72.5918 33.9379 99.7171 21.3997 130 21.3997C160.283 21.3997 187.408 33.9379 206.176 53.7636ZM86.4541 276.088L86.4683 276.104L86.4828 276.12C97.1705 287.886 106.736 298.524 115.227 309.146L115.313 309.254L115.411 309.352L115.466 309.407C115.961 309.902 116.603 310.545 117.281 311.054C117.697 311.366 118.262 311.735 118.948 311.974C121.89 315.515 126.733 316.5 130 316.5C133.267 316.5 138.11 315.515 141.052 311.974C141.738 311.735 142.303 311.366 142.719 311.054C143.397 310.545 144.039 309.902 144.534 309.407L144.589 309.352L144.687 309.254L144.773 309.146C153.308 298.469 162.883 286.758 173.512 275.057C193.262 253.688 214.226 230.565 230.243 206.319C246.256 182.078 257.5 156.462 257.5 130.097C257.5 95.2147 243.344 62.5044 220.444 39.5859C197.543 16.6673 164.857 2.5 130 2.5C95.143 2.5 62.4572 16.6673 39.5563 39.5859C16.6555 62.5044 2.5 95.2147 2.5 130.097C2.5 156.475 14.0229 182.097 30.1594 206.456C45.1511 229.086 64.3057 250.882 82.3333 271.397C83.7143 272.968 85.0887 274.532 86.4541 276.088Z" fill="black" stroke="white" stroke-width="5"/>
<path d="M125.571 303.531H126.692C126.953 303.719 127.211 303.871 127.452 303.991C128.102 304.316 128.698 304.456 129.093 304.522C129.301 304.557 129.484 304.576 129.633 304.587C129.708 304.592 129.777 304.596 129.838 304.598C129.868 304.599 129.897 304.599 129.924 304.6L129.963 304.6L129.982 304.6L129.991 304.6H129.996C129.998 304.6 130 304.6 130 300.1L130 304.6L131.865 304.6L132.933 303.531H134.429L135.777 301.677C136.766 300.315 137.787 298.967 138.834 297.626L141.926 294.531H141.307C143.932 291.316 146.695 288.126 149.537 284.897C150.554 283.742 151.583 282.58 152.618 281.41C156.539 276.981 160.559 272.44 164.401 267.745C164.891 267.199 165.381 266.652 165.873 266.104C184.084 245.801 203.661 223.974 218.798 201.581C234.333 178.597 245.611 154.427 245.611 130.097C245.611 97.8772 232.304 68.9398 211.176 48.8632C191.115 27.719 162.198 14.3997 130 14.3997C97.802 14.3997 68.8853 27.7189 48.8243 48.8631C27.6965 68.9397 14.3889 97.8772 14.3889 130.097C14.3889 154.427 25.6669 178.597 41.2024 201.581C56.3393 223.974 75.9162 245.801 94.1269 266.104C94.6414 266.677 95.1547 267.25 95.6668 267.821L95.6765 267.832L95.6862 267.842C106.386 279.621 115.841 290.142 124.223 301.677L125.571 303.531ZM124.13 307.228L122.794 305.223H121.206C121.162 305.183 121.113 305.138 121.06 305.088C120.9 304.938 120.734 304.775 120.537 304.579C111.937 293.835 102.292 283.114 91.69 271.442C90.3516 269.917 89.0069 268.386 87.6581 266.851C69.5596 246.254 50.7108 224.803 35.9951 202.59C20.1691 178.7 9.5 154.466 9.5 130.097C9.5 97.0842 22.9089 66.1495 44.508 44.5337C66.107 22.918 97.0161 9.5 130 9.5C162.984 9.5 193.893 22.918 215.492 44.5337C237.091 66.1495 250.5 97.0842 250.5 130.097C250.5 154.491 240.076 178.734 224.402 202.461C208.74 226.171 188.148 248.909 168.362 270.316L168.349 270.33L168.336 270.345C157.622 282.139 147.99 293.915 139.462 304.579C139.266 304.775 139.1 304.939 138.94 305.088C138.887 305.138 138.838 305.183 138.794 305.223H137.206L135.87 307.228C135.455 307.851 134.723 308.429 133.592 308.865C132.456 309.302 131.148 309.5 130 309.5C128.852 309.5 127.544 309.302 126.408 308.865C125.277 308.429 124.545 307.851 124.13 307.228Z" fill="black" stroke="white" stroke-width="9"/>
</svg>
