<svg width="25" height="25" viewBox="0 0 25 25" fill="none" xmlns="http://www.w3.org/2000/svg">
<path d="M12.3825 12.5341C15.7743 12.5341 18.5559 9.6653 18.5559 6.1817C18.5559 2.71514 15.8102 0 12.3825 0C8.9908 0 6.20924 2.76637 6.20924 6.21584C6.20924 9.6653 9.00874 12.5341 12.3825 12.5341ZM12.3825 10.2459C10.4803 10.2459 8.7934 8.45286 8.7934 6.21584C8.7934 3.97881 10.4265 2.30533 12.3825 2.30533C14.3566 2.30533 15.9717 3.94467 15.9717 6.1817C15.9717 8.4187 14.3207 10.2459 12.3825 10.2459ZM3.69681 25H21.0683C23.5807 25 24.7651 24.2999 24.7651 22.763C24.7651 19.2452 20.0992 14.1052 12.3825 14.1052C4.68385 14.1052 0 19.2452 0 22.763C0 24.2999 1.20236 25 3.69681 25ZM2.88928 22.6947C2.69184 22.6947 2.5842 22.6434 2.5842 22.4556C2.5842 20.4577 6.02977 16.4105 12.3825 16.4105C18.7353 16.4105 22.1809 20.4577 22.1809 22.4556C22.1809 22.6434 22.0732 22.6947 21.8758 22.6947H2.88928Z" fill="black"/>
</svg>
