<svg width="29" height="25" viewBox="0 0 29 25" fill="none" xmlns="http://www.w3.org/2000/svg">
<path d="M6.17502 25H21.8037C23.5092 25 24.5237 23.9934 24.5237 22.2656V11.253L25.9939 12.53C26.2733 12.7554 26.582 12.9657 26.9496 12.9657C27.567 12.9657 28.0671 12.5751 28.0671 11.9291C28.0671 11.5234 27.9494 11.253 27.67 11.0126L24.5237 8.30829V3.45552C24.5237 2.88462 24.1561 2.52404 23.6121 2.52404H22.2889C21.7302 2.52404 21.3627 2.88462 21.3627 3.45552V5.58893L15.5258 0.585946C14.6142 -0.195315 13.4821 -0.195315 12.5706 0.585946L0.411666 11.0126C0.13233 11.253 0 11.5835 0 11.884C0 12.4399 0.42636 12.9657 1.14679 12.9657C1.51435 12.9657 1.8231 12.7554 2.08774 12.53L3.44037 11.3582V22.2656C3.44037 23.9934 4.45483 25 6.17502 25ZM17.4077 15.1292C17.4077 14.5583 17.0401 14.1827 16.4815 14.1827H11.6149C11.0562 14.1827 10.6887 14.5583 10.6887 15.1292V22.8365H6.61611C5.95449 22.8365 5.57223 22.4159 5.57223 21.7248V9.54026L13.6586 2.59915C13.9085 2.38881 14.2026 2.40385 14.4231 2.59915L22.4065 9.43509V21.7248C22.4065 22.4159 22.0096 22.8365 21.348 22.8365H17.4077V15.1292Z" fill="black"/>
</svg>
