<svg width="31" height="24" viewBox="0 0 31 24" fill="none" xmlns="http://www.w3.org/2000/svg">
<path d="M5.59718 23.0469H25.6084C26.0866 23.0469 26.4931 22.8795 26.8277 22.5448C27.1625 22.2101 27.3298 21.7957 27.3298 21.3016C27.3298 20.8234 27.1625 20.417 26.8277 20.0822C26.4931 19.7475 26.0866 19.5802 25.6084 19.5802H5.59718C5.11899 19.5802 4.71255 19.7475 4.37783 20.0822C4.04311 20.417 3.87575 20.8234 3.87575 21.3016C3.87575 21.7957 4.04311 22.2101 4.37783 22.5448C4.71255 22.8795 5.11899 23.0469 5.59718 23.0469ZM1.93921 13.2684H29.2664C29.7446 13.2684 30.151 13.101 30.4857 12.7663C30.8204 12.4316 30.9878 12.0251 30.9878 11.547C30.9878 11.0688 30.8204 10.6624 30.4857 10.3277C30.151 9.99296 29.7446 9.8256 29.2664 9.8256H1.93921C1.46103 9.8256 1.05457 9.99296 0.719855 10.3277C0.385135 10.6624 0.217773 11.0688 0.217773 11.547C0.217773 12.0251 0.385135 12.4316 0.719855 12.7663C1.05457 13.101 1.46103 13.2684 1.93921 13.2684ZM5.59692 3.51473L25.6084 3.51354C26.1025 3.51354 26.513 3.3462 26.8397 3.01151C27.1664 2.67679 27.3298 2.27034 27.3298 1.79216C27.3298 1.29804 27.1664 0.88364 26.8397 0.548953C26.513 0.214234 26.1025 0.046875 25.6084 0.046875L5.59692 0.048063C5.11877 0.048063 4.71234 0.215422 4.37762 0.550141C4.0429 0.884828 3.87555 1.29923 3.87555 1.79334C3.87555 2.27153 4.0429 2.67798 4.37762 3.0127C4.71234 3.34739 5.11877 3.51473 5.59692 3.51473Z" fill="black"/>
</svg>
