<svg width="36" height="38" viewBox="0 0 36 38" fill="none" xmlns="http://www.w3.org/2000/svg">
<path fill-rule="evenodd" clip-rule="evenodd" d="M29.0368 25.5667C29.8023 25.5667 30.5006 26.0035 30.8354 26.6919L34.6014 34.4349C35.2475 35.7633 34.28 37.3097 32.8028 37.3097H30.3838C29.4686 37.3097 28.6702 36.6885 28.4452 35.8015L26.4808 28.0585C26.1601 26.7945 27.1154 25.5667 28.4194 25.5667H29.0368Z" fill="black"/>
<path fill-rule="evenodd" clip-rule="evenodd" d="M18.6536 26.8846C18.5665 26.7729 18.4007 26.7981 18.3635 26.9348C18.3197 27.0956 18.2806 27.2537 18.2166 27.348L15.3806 31.547C15.2078 31.8029 15.0965 32.0953 15.0556 32.4013L14.7022 35.0445C14.5419 36.2437 15.4747 37.3095 16.6846 37.3095H19.7836C20.7455 37.3095 21.487 36.4619 21.359 35.5085L21.3011 35.0769C21.2631 34.7937 21.0703 34.5664 20.8326 34.408C20.1634 33.9683 19.669 33.1784 19.5612 32.2533L18.6908 26.9694C18.6857 26.9385 18.6729 26.9093 18.6536 26.8846Z" fill="black"/>
<path fill-rule="evenodd" clip-rule="evenodd" d="M6.96021 25.5667C6.19463 25.5667 5.49621 26.0037 5.16149 26.6922L1.39735 34.4353C0.751578 35.7636 1.71904 37.3097 3.19607 37.3097H5.6139C6.52887 37.3097 7.32718 36.6888 7.55237 35.8019L9.51861 28.0589C9.83961 26.7948 8.88434 25.5667 7.58014 25.5667H6.96021Z" fill="black"/>
<path fill-rule="evenodd" clip-rule="evenodd" d="M17.4523 0.000122702C16.0295 -0.0116086 14.6681 0.81852 14.0653 2.2084C13.2648 4.05915 14.1178 6.21492 15.9708 7.01544C17.8299 7.81429 19.9801 6.96293 20.7829 5.10603C21.5806 3.25249 20.7304 1.09951 18.8712 0.298992C18.4093 0.0995594 17.9266 0.0034745 17.4523 0.000122702Z" fill="black"/>
<path fill-rule="evenodd" clip-rule="evenodd" d="M16.2069 9.35135C16.2069 9.35151 16.2067 9.35163 16.2066 9.35163C15.8665 9.35393 15.5347 9.46174 15.2583 9.66503L11.0747 12.7755C10.7546 13.0146 10.5362 13.3637 10.4608 13.7565L9.10439 18.8506C8.70609 20.9315 11.8249 21.5304 12.2238 19.4495L13.4125 15.1547C13.4473 15.0291 13.5229 14.9186 13.6274 14.8406C14.0149 14.5515 14.5662 14.828 14.5662 15.3114V19.2205C14.5662 19.6361 14.712 20.0377 14.9678 20.364L19.4211 26.0537C19.6279 26.3179 19.7649 26.63 19.8195 26.9611L20.6703 32.1226C20.9703 34.7063 24.8808 34.065 24.3394 31.5227L23.3384 25.3799C23.2859 25.071 23.1579 24.7811 22.9658 24.5331L19.629 20.2832C19.4405 20.0432 19.3388 19.7465 19.3403 19.4414L19.3504 17.3537C19.3536 16.6804 20.2205 16.4099 20.6061 16.9619C20.7312 17.1407 20.8944 17.2893 21.0804 17.4015L24.4931 19.4908C26.2997 20.5964 27.9555 17.8848 26.1489 16.7815L23.3751 15.0857C23.1397 14.9418 22.9367 14.7509 22.7788 14.5248L19.6374 10.0287C19.3408 9.60302 18.8548 9.35107 18.3369 9.35107H16.2071C16.207 9.35107 16.2069 9.3512 16.2069 9.35135Z" fill="black"/>
<path fill-rule="evenodd" clip-rule="evenodd" d="M16.5574 24.17C15.8428 23.2575 14.3931 23.5537 14.0937 24.6734C14.0534 24.8239 13.9884 24.9668 13.9013 25.096L10.0677 30.781C8.49906 32.8703 11.8045 35.0992 13.1519 32.8585L17.2953 26.7253C17.3989 26.5714 17.4883 26.4331 17.5561 26.2853C17.7408 25.8824 17.5451 25.4312 17.2718 25.0822L16.5574 24.17Z" fill="black"/>
</svg>
